<!-- Generated by IcoMoon.io -->
<svg version="1.1" xmlns="http://www.w3.org/2000/svg" width="32" height="32" viewBox="0 0 32 32">
<title>mozillafirefox</title>
<path fill="#ff9400" d="M31.213 14.64c-0.040-0.28-0.093-0.453-0.093-0.453s-0.107 0.133-0.293 0.373c-0.053-0.68-0.173-1.36-0.36-2.013-0.24-0.827-0.547-1.627-0.933-2.387-0.24-0.507-0.52-1-0.853-1.453-0.173-0.267-0.32-0.467-0.347-0.507-0.573-0.933-1.213-1.493-1.973-2.56-0.48-0.813-0.813-1.72-0.973-2.653-0.213 0.56-0.373 1.147-0.48 1.733-0.76-0.773-1.44-1.333-1.84-1.707-2-1.867-1.76-2.827-1.76-2.827s-3.733 4.16-2.12 8.493c0.56 1.467 1.52 2.76 2.787 3.707 1.56 1.28 3.24 2.293 4.12 4.893-0.707-1.373-1.787-2.507-3.107-3.293 0.4 0.947 0.6 1.947 0.587 2.973 0 3.893-3.16 7.053-7.067 7.053-0.52 0-1.053-0.053-1.56-0.173-0.613-0.12-1.2-0.32-1.747-0.6-0.827-0.493-1.547-1.147-2.107-1.933v-0.013c0.067 0.027 0.107 0.040 0.12 0.040 0.293 0.107 0.587 0.187 0.893 0.24 1.2 0.253 2.44 0.107 3.547-0.413 1.12-0.627 1.8-1.080 2.347-0.907s0.96-0.347 0.587-0.893c-0.667-0.867-1.76-1.28-2.827-1.093-1.12 0.16-2.147 0.947-3.6 0.187-0.107-0.053-0.187-0.107-0.28-0.16-0.093-0.067 0.32 0.080 0.213 0.013-0.32-0.16-0.627-0.333-0.92-0.547-0.013-0.013 0.227 0.067 0.2 0.053-0.373-0.253-0.707-0.587-0.96-0.973-0.253-0.467-0.28-1.040-0.067-1.533 0.147-0.253 0.347-0.44 0.6-0.56 0.187 0.093 0.307 0.16 0.307 0.16s-0.093-0.16-0.133-0.24c0.013-0.013 0.027 0 0.053-0.013 0.16 0.067 0.52 0.253 0.72 0.373 0.133 0.067 0.24 0.173 0.333 0.293 0 0 0.067-0.027 0.013-0.173-0.067-0.173-0.187-0.32-0.347-0.413h0.027c0.147 0.080 0.28 0.16 0.413 0.267 0.12-0.293 0.187-0.587 0.173-0.893 0.013-0.173-0.013-0.347-0.067-0.493-0.053-0.107 0.027-0.147 0.12-0.040-0.013-0.080-0.040-0.16-0.080-0.24 0 0 0.053-0.080 0.080-0.093 0.067-0.067 0.133-0.133 0.213-0.173 0.467-0.293 0.947-0.547 1.453-0.747 0.413-0.173 0.747-0.32 0.813-0.36 0.107-0.067 0.2-0.133 0.293-0.213 0.347-0.293 0.573-0.693 0.653-1.133 0.013-0.067 0.013-0.12 0.013-0.173v-0.107c-0.053-0.227-0.44-0.387-2.453-0.587-0.707-0.107-1.28-0.64-1.44-1.347v0.013c-0.027 0.067-0.053 0.147-0.080 0.227 0.027-0.080 0.053-0.147 0.080-0.227v-0.013c0.387-1 1.080-1.867 1.973-2.453 0.053-0.040-0.2 0.013-0.147-0.027 0.16-0.080 0.333-0.16 0.52-0.227 0.093-0.027-0.387-0.213-0.813-0.173-0.253 0.013-0.507 0.080-0.747 0.173 0.107-0.080 0.4-0.187 0.333-0.187-0.547 0.093-1.067 0.293-1.533 0.573 0-0.053 0.013-0.093 0.027-0.133-0.373 0.16-0.707 0.413-0.947 0.733v-0.173c-0.173 0.133-0.32 0.28-0.467 0.44h-0.013c-1.107-0.427-2.307-0.533-3.48-0.293l-0.013-0.013h0.013c-0.24-0.187-0.453-0.427-0.613-0.693l-0.013 0.013-0.027-0.027c-0.080-0.107-0.147-0.24-0.227-0.387-0.067-0.093-0.12-0.213-0.187-0.333 0 0 0-0.013-0.013-0.013s-0.040 0.12-0.053 0.080c-0.2-0.533-0.307-1.107-0.28-1.667h-0.013c-0.333 0.227-0.587 0.547-0.707 0.933-0.067 0.133-0.107 0.2-0.147 0.28v-0.040l0.040-0.2c-0.013 0.013-0.013 0.027-0.027 0.040-0.093 0.107-0.173 0.227-0.24 0.36-0.067 0.12-0.12 0.253-0.16 0.387v-0.067c0-0.053 0.013-0.133 0-0.107l-0.013 0.040c-0.427 0.947-0.707 1.96-0.8 3-0.027 0.187-0.027 0.36-0.027 0.533v0.027c-0.307 0.333-0.573 0.693-0.813 1.080-0.773 1.307-1.347 2.72-1.707 4.2 0.253-0.56 0.56-1.107 0.92-1.613-0.693 1.747-1.040 3.587-1.040 5.453 0.12-0.547 0.267-1.080 0.44-1.613-0.107 2.2 0.32 4.4 1.24 6.413 1.24 2.773 3.293 5.107 5.907 6.68 1.053 0.72 2.213 1.28 3.427 1.653 0.16 0.053 0.333 0.12 0.493 0.173-0.053-0.027-0.093-0.053-0.147-0.067 1.44 0.427 2.947 0.653 4.453 0.653 5.347 0 7.107-2.040 7.28-2.24 0.253-0.24 0.48-0.52 0.627-0.853 0.107-0.040 0.2-0.080 0.307-0.133l0.067-0.027c0.080-0.040 0.12-0.053 0.12-0.053 0.813-0.387 1.573-0.853 2.267-1.413 1.040-0.747 1.773-1.84 2.093-3.080 0.2-0.453 0.2-0.947 0.040-1.413 0.080-0.133 0.147-0.253 0.16-0.28 1.147-1.84 1.8-3.947 1.893-6.12v-0.187c0-0.453-0.040-0.92-0.12-1.373z"></path>
</svg>
