<!-- Generated by IcoMoon.io -->
<svg version="1.1" xmlns="http://www.w3.org/2000/svg" width="32" height="32" viewBox="0 0 32 32">
<title>sublimetext</title>
<path d="M16 27.888h12.697c0.797 0 1.459-0.452 1.459-1v-2.561c-0.333 0.335-0.861 0.544-1.459 0.544h-25.392c-0.593 0-1.121-0.209-1.46-0.54v2.553c0 0.551 0.653 1 1.46 1l12.695 0.004z"></path>
<path d="M16 29.825h13.924c1.145 0 2.076-0.688 2.076-1.531 0-0.067-0.011-0.133-0.021-0.197l-2.14-22.68c-0.068-0.531-0.473-0.953-0.927-1.128l1.621 19.208v3.391c0 0.759-0.82 1.379-1.841 1.379h-25.385c-1.011 0-1.836-0.625-1.836-1.379v-3.391l1.617-19.208c-0.453 0.177-0.86 0.6-0.927 1.129l-2.141 22.672c-0.016 0.068-0.020 0.129-0.020 0.2 0 0.84 0.927 1.535 2.075 1.535h13.925z"></path>
<path d="M28.511 3.953l-0.039-0.42c0-0.028 0-0.049-0.005-0.081l-0.008-0.093c-0.081-0.672-0.633-1.187-1.443-1.187h-22.036c-0.805 0-1.355 0.512-1.44 1.18l-0.004 0.101-0.004 0.080-0.040 0.419-1.64 19.548c0 0.549 0.652 1 1.456 1h25.393c0.803 0 1.453-0.451 1.459-1l-1.649-19.547zM20.929 16.361c-0.355 0.931-1.171 1.595-2.060 2-0.967 0.444-2.047 0.616-3.109 0.632-1.125 0.016-2.26-0.1-3.356-0.36-0.555-0.125-1.129-0.276-1.655-0.505-0.472-0.207-0.86-0.675-0.849-1.205 0.011-0.539 0.399-0.988 0.892-1.184 0.516-0.205 1.012-0.12 1.516 0.060 1.12 0.387 2.308 0.548 3.492 0.508 0.673-0.020 1.853-0.38 1.664-1.423-0.040-0.231-0.225-0.555-0.46-0.773-0.184-0.183-0.571-0.361-0.82-0.427-0.552-0.151-1.12-0.264-1.68-0.385-1.128-0.248-1.729-0.435-2.729-1.041-0.881-0.525-1.071-0.864-1.207-1.653-0.177-1.033 0.328-1.852 1.16-2.479 1.86-1.413 3.643-1.364 5.841-0.961 0.539 0.1 1.185 0.191 1.659 0.479 0.467 0.281 0.728 0.849 0.527 1.377-0.188 0.5-0.664 0.576-1.18 0.52-0.555-0.059-0.781-0.205-1.305-0.304-1.096-0.2-1.5-0.368-2.555-0.068-0.419 0.12-0.987 0.519-0.773 1.043 0.18 0.433 0.841 0.575 1.236 0.681 1.084 0.289 1.931 0.623 3.009 0.94 1.012 0.295 1.779 0.855 2.409 1.745 0.561 0.795 0.681 1.888 0.341 2.793l-0.005-0.007-0.003-0.003z"></path>
</svg>
