<!-- Generated by IcoMoon.io -->
<svg version="1.1" xmlns="http://www.w3.org/2000/svg" width="32" height="32" viewBox="0 0 32 32">
<title>tencentqq</title>
<path fill="#12b7f5" d="M26.787 15.612c-0.085-1.209-0.316-2.66-0.937-3.517 0.601-7.647-4.6-12.172-9.848-12.093-5.248 0.085-10.445 4.447-9.844 12.093-0.621 0.857-0.856 2.3-0.933 3.517-1.54 2.359-3.239 5.96-1.345 9.432 0.964-0.419 1.74-1.331 1.993-2.46 0.733 1.8 1.805 3.507 3.251 4.82-2.071 0.405-3.54 1.381-3.491 2.444 0.060 1.311 2.407 2.272 5.235 2.139 2.355-0.113 4.3-0.94 4.855-1.975 0.060 0.008 0.505 0.008 0.565 0 0.552 1.037 2.5 1.865 4.855 1.975 2.828 0.129 5.175-0.828 5.233-2.139 0.049-1.067-1.419-2.039-3.487-2.44 1.447-1.32 2.521-3.021 3.249-4.82 0.253 1.129 1.029 2.040 1.992 2.46 1.887-3.472 0.188-7.073-1.348-9.432h-0.004v-0.004h0.009zM18.644 5.027c1.041 0.031 1.849 1.301 1.803 2.832-0.052 1.531-0.935 2.745-1.973 2.711-1.039-0.036-1.839-1.297-1.793-2.833 0.045-1.531 0.932-2.74 1.964-2.709zM13.201 4.853c1.072-0.039 1.979 1.216 2.032 2.797 0.049 1.581-0.78 2.891-1.851 2.92-1.071 0.040-1.979-1.212-2.031-2.795-0.048-1.58 0.779-2.892 1.848-2.92l0.001-0.003zM9.887 12.329c0.139-0.62 3.833-1.372 6.115-1.38 2.287-0.015 5.976 0.764 6.12 1.38 0.092 0.455-1.932 2.024-3.207 2.532-1.231 0.479-1.507 1.164-2.911 1.164-1.401 0-1.68-0.681-2.907-1.164-1.279-0.509-3.304-2.080-3.213-2.532h0.003zM16.001 29.24c-4.869-0.016-9.679-3.86-7.565-11.449 0.292 0.161 0.607 0.305 0.936 0.451-0.069 0.953-0.275 4.040-0.187 4.529 0.1 0.591 3.24 1.032 3.521 0.824 0.248-0.18 0.219-3.211 0.185-4.292 1.004 0.191 2.056 0.295 3.109 0.295 2.827 0.003 5.64-0.773 7.567-1.801 2.12 7.584-2.692 11.46-7.564 11.444h-0.003z"></path>
<path fill="#12b7f5" d="M13.836 6.365c-0.452 0.016-0.8 0.589-0.78 1.287 0.021 0.699 0.404 1.251 0.855 1.24 0.449-0.021 0.8-0.592 0.779-1.289-0.019-0.693-0.404-1.248-0.853-1.235v-0.003zM14.071 8.027c-0.168 0.008-0.313-0.215-0.32-0.5-0.012-0.285 0.116-0.517 0.287-0.52 0.169-0.008 0.313 0.219 0.323 0.5 0.009 0.279-0.119 0.516-0.289 0.52zM19.243 8.392h-0.012c-0.112-0.005-0.203-0.1-0.197-0.211 0.011-0.197-0.025-0.752-0.276-1.019-0.093-0.101-0.208-0.145-0.357-0.145-0.685 0-0.7 1.005-0.703 1.047 0 0.12-0.087 0.209-0.208 0.209-0.123 0-0.2-0.1-0.2-0.212 0-0.505 0.236-1.46 1.117-1.46 0.259 0 0.473 0.095 0.651 0.275 0.424 0.445 0.393 1.289 0.391 1.32-0.001 0.105-0.092 0.191-0.205 0.196zM16.001 15.333c0.264 0.008 0.401-0.016 0.596-0.049 0.5-0.097 1.008-0.572 1.488-0.84 1.033-0.64 1.223-0.521 2.861-1.973-1.104 0.893-2.14 1.369-3.216 1.685-0.293 0.085-0.992 0.14-1.727 0.144-0.735 0.012-1.433-0.060-1.727-0.144-1.076-0.316-2.112-0.788-3.211-1.688 1.635 1.453 1.828 1.332 2.86 1.972 0.48 0.271 0.988 0.751 1.488 0.845 0.188 0.033 0.329 0.041 0.587 0.048z"></path>
</svg>
